<?xml version="1.0" encoding="UTF-8" standalone="no"?>
<!-- Generator: Adobe Illustrator 17.0.0, SVG Export Plug-In . SVG Version: 6.00 Build 0)  -->

<svg
   xmlns:dc="http://purl.org/dc/elements/1.1/"
   xmlns:cc="http://creativecommons.org/ns#"
   xmlns:rdf="http://www.w3.org/1999/02/22-rdf-syntax-ns#"
   xmlns:svg="http://www.w3.org/2000/svg"
   xmlns="http://www.w3.org/2000/svg"
   xmlns:sodipodi="http://sodipodi.sourceforge.net/DTD/sodipodi-0.dtd"
   xmlns:inkscape="http://www.inkscape.org/namespaces/inkscape"
   version="1.1"
   id="圖層_1"
   x="0px"
   y="0px"
   width="500"
   height="250"
   viewBox="0 0 500 250"
   enable-background="new 0 0 195 120"
   xml:space="preserve"
   inkscape:version="0.91 r13725"
   sodipodi:docname="CIC.svg"><metadata
     id="metadata4219"><rdf:RDF><cc:Work
         rdf:about=""><dc:format>image/svg+xml</dc:format><dc:type
           rdf:resource="http://purl.org/dc/dcmitype/StillImage" /><dc:title></dc:title></cc:Work></rdf:RDF></metadata><defs
     id="defs4217" /><sodipodi:namedview
     pagecolor="#ffffff"
     bordercolor="#666666"
     borderopacity="1"
     objecttolerance="10"
     gridtolerance="10"
     guidetolerance="10"
     inkscape:pageopacity="0"
     inkscape:pageshadow="2"
     inkscape:window-width="1920"
     inkscape:window-height="1017"
     id="namedview4215"
     showgrid="false"
     fit-margin-top="0"
     fit-margin-left="0"
     fit-margin-right="0"
     fit-margin-bottom="0"
     inkscape:zoom="1.1821375"
     inkscape:cx="115.7152"
     inkscape:cy="-16.534054"
     inkscape:window-x="-8"
     inkscape:window-y="-8"
     inkscape:window-maximized="1"
     inkscape:current-layer="圖層_1" /><g
     id="g4221"
     transform="matrix(3.4050436,0,0,3.4050436,-95.395701,-97.314443)"><polyline
       id="polyline4137"
       points="54.743,40.816 54.743,28.687 28.016,44.12 28.016,86.568 54.743,71.136 54.743,59.009   40.146,67.437 40.146,49.246 54.743,40.816 "
       style="fill:#7fb439" /><polyline
       id="polyline4139"
       points="81.473,56.249 81.473,44.12 54.744,28.688 54.744,40.816 62.045,45.032 62.045,63.223   54.744,59.009 54.744,71.136 62.045,75.351 62.045,75.352 74.175,82.355 74.175,82.354 81.473,86.569 81.473,74.439 74.175,70.226   74.175,52.035 81.473,56.249 "
       style="fill:#939598" /><polyline
       id="polyline4141"
       points="74.17,82.352 59.574,90.781 47.447,83.78 62.045,75.352 54.744,71.135 28.017,86.57 54.744,102   81.473,86.568 74.17,82.352 "
       style="fill:#636466" /><path
       id="path4143"
       d="m 93.664,50.572 c -0.183,-0.558 -0.577,-0.952 -1.198,-0.952 -0.842,0 -1.355,0.787 -1.355,2.335 -0.019,1.546 0.439,2.333 1.392,2.333 0.567,0 0.915,-0.2 1.291,-0.979 l 1.17,0.311 c -0.393,1.145 -1.253,1.731 -2.461,1.731 -1.684,0 -2.656,-1.236 -2.656,-3.396 0,-2.162 0.972,-3.397 2.656,-3.397 1.263,0 1.996,0.568 2.307,1.739 l -1.146,0.275"
       inkscape:connector-curvature="0"
       style="fill:#231f20" /><path
       id="path4145"
       d="m 98.215,55.351 c -1.804,0 -2.775,-1.236 -2.775,-3.396 0,-2.162 0.971,-3.398 2.775,-3.398 1.803,0 2.773,1.236 2.773,3.398 0,2.16 -0.97,3.396 -2.773,3.396 m 0,-5.731 c -1.036,0 -1.511,0.787 -1.511,2.335 -0.019,1.546 0.467,2.332 1.511,2.332 1.035,0 1.511,-0.786 1.511,-2.332 0,-1.548 -0.476,-2.335 -1.511,-2.335 z"
       inkscape:connector-curvature="0"
       style="fill:#231f20" /><polyline
       id="polyline4147"
       points="102.013,55.259 102.013,48.651 103.331,48.651 105.93,53.153 105.949,53.153 105.949,48.651   107.139,48.651 107.139,55.259 105.922,55.259 103.221,50.554 103.203,50.554 103.203,55.259 102.013,55.259 "
       style="fill:#231f20" /><path
       id="path4149"
       d="m 111.715,50.407 c -0.192,-0.513 -0.586,-0.86 -1.181,-0.86 -0.548,0 -0.942,0.219 -0.942,0.732 0,1.135 3.405,0.898 3.405,3.039 0,1.354 -0.852,2.033 -2.315,2.033 -1.08,0 -2.097,-0.605 -2.472,-1.566 l 1.043,-0.457 c 0.302,0.621 0.697,1.033 1.438,1.033 0.631,0 1.117,-0.237 1.117,-0.878 0,-1.3 -3.406,-1.044 -3.406,-3.076 0,-1.182 0.988,-1.849 2.132,-1.849 1.063,0 1.942,0.531 2.334,1.492 l -1.153,0.357"
       inkscape:connector-curvature="0"
       style="fill:#231f20" /><polyline
       id="polyline4151"
       points="118.38,48.641 118.38,49.703 116.65,49.703 116.65,55.26 115.387,55.26 115.387,49.703   113.655,49.703 113.655,48.641 118.38,48.641 "
       style="fill:#231f20" /><path
       id="path4153"
       d="m 119.278,55.259 0,-6.609 2.635,0 c 1.501,0 2.105,0.87 2.114,1.958 0.009,0.814 -0.404,1.474 -1.21,1.702 l 1.456,2.949 -1.399,0 -1.245,-2.692 -1.09,0 0,2.692 -1.261,0 m 1.261,-3.717 0.935,0 c 0.987,0 1.289,-0.311 1.289,-0.934 0,-0.622 -0.375,-0.934 -1.069,-0.934 l -1.155,0 0,1.868 z"
       inkscape:connector-curvature="0"
       style="fill:#231f20" /><path
       id="path4155"
       d="m 129.245,48.651 1.262,0 0,4.137 c 0,1.932 -1.189,2.564 -2.536,2.564 -1.345,0 -2.536,-0.632 -2.536,-2.564 l 0,-4.137 1.265,0 0,4.191 c 0,1.072 0.42,1.446 1.271,1.446 0.852,0 1.274,-0.374 1.274,-1.446 l 0,-4.191"
       inkscape:connector-curvature="0"
       style="fill:#231f20" /><path
       id="path4157"
       d="m 135.367,50.572 c -0.184,-0.558 -0.577,-0.952 -1.199,-0.952 -0.842,0 -1.353,0.787 -1.353,2.335 -0.02,1.546 0.439,2.333 1.39,2.333 0.567,0 0.915,-0.2 1.291,-0.979 l 1.172,0.311 c -0.396,1.145 -1.255,1.731 -2.463,1.731 -1.683,0 -2.654,-1.236 -2.654,-3.396 0,-2.162 0.971,-3.397 2.654,-3.397 1.264,0 1.996,0.568 2.307,1.739 l -1.145,0.275"
       inkscape:connector-curvature="0"
       style="fill:#231f20" /><polyline
       id="polyline4159"
       points="141.773,48.641 141.773,49.703 140.044,49.703 140.044,55.26 138.781,55.26 138.781,49.703   137.05,49.703 137.05,48.641 141.773,48.641 "
       style="fill:#231f20" /><rect
       id="rect4161"
       height="6.6090002"
       width="1.266"
       y="48.650002"
       x="142.84399"
       style="fill:#231f20" /><path
       id="path4163"
       d="m 148.054,55.351 c -1.804,0 -2.774,-1.236 -2.774,-3.396 0,-2.162 0.97,-3.398 2.774,-3.398 1.802,0 2.774,1.236 2.774,3.398 0,2.16 -0.972,3.396 -2.774,3.396 m 0,-5.731 c -1.035,0 -1.511,0.787 -1.511,2.335 -0.018,1.546 0.468,2.332 1.511,2.332 1.033,0 1.51,-0.786 1.51,-2.332 0,-1.548 -0.477,-2.335 -1.51,-2.335 z"
       inkscape:connector-curvature="0"
       style="fill:#231f20" /><polyline
       id="polyline4165"
       points="151.854,55.259 151.854,48.651 153.169,48.651 155.771,53.153 155.789,53.153 155.789,48.651   156.98,48.651 156.98,55.259 155.762,55.259 153.06,50.554 153.042,50.554 153.042,55.259 151.854,55.259 "
       style="fill:#231f20" /><rect
       id="rect4167"
       height="6.6090002"
       width="1.2640001"
       y="59.632999"
       x="90.460999"
       style="fill:#231f20" /><polyline
       id="polyline4169"
       points="93.363,66.242 93.363,59.633 94.68,59.633 97.283,64.137 97.299,64.137 97.299,59.633   98.49,59.633 98.49,66.242 97.271,66.242 94.571,61.538 94.554,61.538 94.554,66.242 93.363,66.242 "
       style="fill:#231f20" /><path
       id="path4171"
       d="m 99.943,59.633 2.189,0 c 1.749,0 2.957,0.97 2.966,3.305 -0.009,2.335 -1.217,3.304 -2.966,3.304 l -2.189,0 0,-6.609 m 1.264,5.548 0.843,0 c 1.445,0 1.783,-1.063 1.783,-2.243 0,-1.181 -0.338,-2.242 -1.783,-2.242 l -0.843,0 0,4.485 z"
       inkscape:connector-curvature="0"
       style="fill:#231f20" /><path
       id="path4173"
       d="m 109.913,59.633 1.264,0 0,4.138 c 0,1.932 -1.191,2.562 -2.537,2.562 -1.346,0 -2.536,-0.63 -2.536,-2.562 l 0,-4.138 1.264,0 0,4.192 c 0,1.072 0.42,1.448 1.272,1.448 0.851,0 1.273,-0.376 1.273,-1.448 l 0,-4.192"
       inkscape:connector-curvature="0"
       style="fill:#231f20" /><path
       id="path4175"
       d="m 115.777,61.391 c -0.189,-0.513 -0.584,-0.861 -1.179,-0.861 -0.551,0 -0.943,0.22 -0.943,0.734 0,1.134 3.405,0.895 3.405,3.038 0,1.356 -0.849,2.031 -2.315,2.031 -1.081,0 -2.097,-0.604 -2.472,-1.564 l 1.043,-0.457 c 0.304,0.622 0.697,1.034 1.438,1.034 0.633,0 1.118,-0.238 1.118,-0.88 0,-1.299 -3.406,-1.043 -3.406,-3.075 0,-1.181 0.99,-1.849 2.132,-1.849 1.062,0 1.942,0.531 2.335,1.492 l -1.156,0.357"
       inkscape:connector-curvature="0"
       style="fill:#231f20" /><polyline
       id="polyline4177"
       points="122.442,59.624 122.442,60.686 120.714,60.686 120.714,66.241 119.449,66.241 119.449,60.686   117.719,60.686 117.719,59.624 122.442,59.624 "
       style="fill:#231f20" /><path
       id="path4179"
       d="m 123.34,66.242 0,-6.609 2.636,0 c 1.501,0 2.104,0.87 2.115,1.959 0.008,0.815 -0.402,1.475 -1.209,1.703 l 1.456,2.947 -1.401,0 -1.244,-2.691 -1.09,0 0,2.691 -1.263,0 m 1.263,-3.716 0.934,0 c 0.989,0 1.29,-0.311 1.29,-0.934 0,-0.622 -0.375,-0.934 -1.071,-0.934 l -1.153,0 0,1.868 z"
       inkscape:connector-curvature="0"
       style="fill:#231f20" /><polyline
       id="polyline4181"
       points="131.113,62.252 132.248,59.633 133.565,59.633 131.745,63.607 131.745,66.242 130.48,66.242   130.48,63.607 128.66,59.633 129.977,59.633 131.113,62.252 "
       style="fill:#231f20" /><path
       id="path4183"
       d="m 140.54,61.555 c -0.182,-0.558 -0.574,-0.952 -1.199,-0.952 -0.842,0 -1.356,0.788 -1.356,2.335 -0.016,1.547 0.441,2.335 1.393,2.335 0.568,0 0.916,-0.202 1.291,-0.98 l 1.171,0.311 c -0.394,1.144 -1.254,1.729 -2.462,1.729 -1.683,0 -2.655,-1.236 -2.655,-3.395 0,-2.161 0.972,-3.397 2.655,-3.397 1.263,0 1.997,0.568 2.306,1.739 l -1.144,0.275"
       inkscape:connector-curvature="0"
       style="fill:#231f20" /><path
       id="path4185"
       d="m 145.092,66.333 c -1.805,0 -2.776,-1.235 -2.776,-3.394 0,-2.162 0.971,-3.397 2.776,-3.397 1.8,0 2.772,1.235 2.772,3.397 0,2.159 -0.972,3.394 -2.772,3.394 m 0,-5.729 c -1.037,0 -1.512,0.787 -1.512,2.335 -0.018,1.547 0.467,2.334 1.512,2.334 1.032,0 1.51,-0.787 1.51,-2.334 0,-1.548 -0.478,-2.335 -1.51,-2.335 z"
       inkscape:connector-curvature="0"
       style="fill:#231f20" /><path
       id="path4187"
       d="m 152.724,59.633 1.263,0 0,4.138 c 0,1.932 -1.19,2.562 -2.534,2.562 -1.348,0 -2.537,-0.63 -2.537,-2.562 l 0,-4.138 1.262,0 0,4.192 c 0,1.072 0.422,1.448 1.275,1.448 0.849,0 1.271,-0.376 1.271,-1.448 l 0,-4.192"
       inkscape:connector-curvature="0"
       style="fill:#231f20" /><polyline
       id="polyline4189"
       points="155.496,66.242 155.496,59.633 156.818,59.633 159.414,64.137 159.432,64.137 159.432,59.633   160.623,59.633 160.623,66.242 159.405,66.242 156.705,61.538 156.686,61.538 156.686,66.242 155.496,66.242 "
       style="fill:#231f20" /><path
       id="path4191"
       d="m 165.456,61.555 c -0.183,-0.558 -0.577,-0.952 -1.2,-0.952 -0.843,0 -1.356,0.788 -1.356,2.335 -0.016,1.547 0.442,2.335 1.392,2.335 0.569,0 0.917,-0.202 1.293,-0.98 l 1.171,0.311 c -0.394,1.144 -1.254,1.729 -2.464,1.729 -1.682,0 -2.654,-1.236 -2.654,-3.395 0,-2.161 0.972,-3.397 2.654,-3.397 1.264,0 1.997,0.568 2.308,1.739 l -1.144,0.275"
       inkscape:connector-curvature="0"
       style="fill:#231f20" /><rect
       id="rect4193"
       height="6.6090002"
       width="1.26"
       y="59.632999"
       x="167.84599"
       style="fill:#231f20" /><polyline
       id="polyline4195"
       points="170.718,66.242 170.718,59.633 171.983,59.633 171.983,65.181 174.857,65.181 174.857,66.242   170.718,66.242 "
       style="fill:#231f20" /><path
       id="path4197"
       d="m 92.703,76.365 -2.051,0 -0.308,-0.49 2.025,-3.829 -2.211,0 0,-0.826 2.972,0 0.317,0.489 -2.023,3.829 1.865,0 c 0.186,0.009 0.28,0.103 0.28,0.28 -0.036,1.806 -0.427,3.52 -1.172,5.148 0.738,1.065 2.064,1.613 3.982,1.64 l 5.876,0 -0.199,0.829 -5.384,0 C 95.74,83.407 94.922,83.318 94.222,83.168 93.431,83 92.699,82.495 92.023,81.653 c -0.454,0.739 -0.964,1.445 -1.532,2.118 l -0.68,-0.673 c 0.693,-0.795 1.243,-1.547 1.652,-2.258 -0.461,-0.804 -0.858,-1.78 -1.185,-2.932 l 0.719,-0.209 c 0.232,0.869 0.506,1.627 0.827,2.272 l 0.039,0.083 c 0.534,-1.111 0.813,-2.341 0.84,-3.689"
       inkscape:connector-curvature="0"
       style="fill:#231f20" /><path
       id="path4199"
       d="m 101.043,76.478 c 0.168,0 0.253,-0.088 0.253,-0.266 l 0,-1.811 1.039,0 0,-0.826 -1.039,0 0,-1.823 c 0,-0.17 -0.085,-0.255 -0.253,-0.255 l -2.892,0 0,-0.952 -0.786,0 0,0.952 -2.758,0 0,0.829 2.758,0 0,1.249 -3.677,0 0,0.826 3.677,0 0,1.249 -2.599,0 0,0.828 2.599,0 0,1.192 -2.984,0 0,0.828 2.984,0 0,1.136 -3.57,0 0,0.829 3.57,0 0,1.429 0.786,0 0,-1.429 3.972,0 0,-0.829 -3.972,0 0,-1.136 3.385,0 0,-0.828 -3.385,0 0,-1.192 2.892,0 m -2.892,-4.152 2.278,0 c 0.054,0 0.081,0.024 0.081,0.071 l 0,1.178 -2.359,0 0,-1.249 z m 0,2.075 2.359,0 0,1.164 c 0,0.057 -0.027,0.085 -0.081,0.085 l -2.278,0 0,-1.249 z"
       inkscape:connector-curvature="0"
       style="fill:#231f20" /><path
       id="path4201"
       d="m 104.983,71.092 c 0.533,0.337 1.119,0.814 1.757,1.432 l -0.504,0.658 c -0.687,-0.655 -1.257,-1.126 -1.719,-1.416 l 0.466,-0.674"
       inkscape:connector-curvature="0"
       style="fill:#231f20" /><path
       id="path4203"
       d="m 111.638,73.055 -2.799,0 c -0.346,0.57 -0.737,1.042 -1.17,1.415 l -0.587,-0.587 c 0.416,-0.366 0.777,-0.775 1.078,-1.235 0.222,-0.364 0.445,-0.93 0.666,-1.696 l 0.761,0.211 -0.346,1.064 2.397,0 0,-1.514 0.786,0 0,1.514 3.704,0 0,0.828 -3.704,0 0,2.078 4.29,0 0,0.827 -9.231,0 0,-0.827 4.155,0 0,-2.078"
       inkscape:connector-curvature="0"
       style="fill:#231f20" /><path
       id="path4205"
       d="m 115.555,77.277 -7.008,0 c -0.063,0 -0.098,0.037 -0.106,0.112 l 0,3.93 c 0,0.085 0.035,0.127 0.106,0.127 l 7.008,0 c 0.08,0 0.121,-0.042 0.121,-0.127 l 0,-3.93 c 0,-0.066 -0.041,-0.102 -0.121,-0.112 m -0.666,3.3 -0.039,0.04 -5.597,0 -0.028,-0.04 0,-2.445 0.028,-0.027 5.597,0 0.039,0.027 0,2.445 z"
       inkscape:connector-curvature="0"
       style="fill:#231f20" /><path
       id="path4207"
       d="m 106.188,78.498 -1.541,0 -0.308,-0.492 1.404,-3.306 -1.452,0 0,-0.819 2.15,0 0.319,0.492 -1.384,3.283 1.405,0 c 0.149,0.007 0.226,0.082 0.226,0.224 -0.03,1.436 -0.294,2.254 -0.888,3.549 0.588,0.85 1.644,1.285 3.173,1.308 l 7.476,-0.1 -0.235,0.967 -7.057,0 c -0.743,-0.021 -1.393,-0.092 -1.951,-0.21 -0.629,-0.134 -1.212,-0.537 -1.749,-1.207 -0.362,0.589 -0.768,1.152 -1.222,1.686 l -0.666,-0.534 c 1.85,-2.043 2.279,-3.784 2.3,-4.841"
       inkscape:connector-curvature="0"
       style="fill:#231f20" /><path
       id="path4209"
       d="m 125.152,83.91 -0.787,0 0,-3.534 c -1.964,1.44 -3.761,2.33 -5.397,2.665 l -0.344,-0.772 c 1.891,-0.439 3.609,-1.247 5.156,-2.426 l -4.85,0 0,-0.827 5.435,0 0,-1.024 -4.796,0 0,-0.828 4.796,0 0,-1.023 -5.169,0 0,-0.828 3.252,0 -0.733,-1.472 -3,0 0,-0.828 2.614,0 c -0.348,-0.691 -0.659,-1.225 -0.935,-1.598 l 0.668,-0.463 c 0.329,0.439 0.656,1.001 0.985,1.684 l -0.612,0.377 1.812,0 0,-2.357 0.786,0 0,2.357 1.504,0 0,-2.357 0.788,0 0,2.357 1.784,0 -0.587,-0.448 c 0.51,-0.682 0.873,-1.254 1.093,-1.711 l 0.666,0.448 c -0.257,0.514 -0.617,1.085 -1.077,1.711 l 2.516,0 0,0.828 -3.182,0 -0.613,1.472 3.316,0 0,0.828 -5.089,0 0,1.023 4.717,0 0,0.828 -4.717,0 0,1.024 5.515,0 0,0.827 -4.916,0 c 1.334,1.029 3.051,1.828 5.155,2.399 l -0.411,0.743 c -1.804,-0.496 -3.585,-1.364 -5.343,-2.609 l 0,3.534 m 0.906,-8.597 0.652,-1.472 -4.117,0 0.704,1.472 2.761,0 z"
       inkscape:connector-curvature="0"
       style="fill:#231f20" /><path
       id="path4211"
       d="m 133.095,73.013 4.011,0 0,0.828 -4.011,0 0,-0.828 z m 0.319,-1.794 3.211,0 0,0.826 -3.211,0 0,-0.826 z m 0,3.757 3.159,0 0,0.828 -3.159,0 0,-0.828 z m 0,1.852 3.211,0 0,0.828 -3.211,0 0,-0.828 z m 3.172,6.606 -3.065,0 c -0.072,0 -0.107,-0.04 -0.107,-0.128 l 0,-4.402 c 0.008,-0.074 0.045,-0.113 0.107,-0.113 l 3.065,0 c 0.08,0.01 0.12,0.048 0.12,0.113 l 0,4.402 c 0,0.088 -0.04,0.128 -0.12,0.128 z m -2.358,-3.816 -0.026,0.03 0,2.917 0.026,0.04 1.652,0 0.041,-0.04 0,-2.917 -0.041,-0.03 -1.652,0 z m 7.702,-0.167 -2.187,0 0,1.052 1.159,-0.462 0.346,0.741 -1.505,0.548 0,1.613 c -0.008,0.363 -0.146,0.644 -0.414,0.842 -0.328,0.196 -0.905,0.168 -1.73,-0.085 l 0,-0.855 c 0.417,0.16 0.748,0.253 0.998,0.28 0.135,0 0.24,-0.07 0.321,-0.211 l 0.04,-0.181 0,-1.164 -1.373,0.309 -0.294,-0.788 1.667,-0.362 0,-1.277 -1.757,0 0,-0.828 1.757,0 0,-0.883 -1.333,0.14 -0.16,-0.827 c 1.236,-0.075 2.265,-0.225 3.09,-0.451 l 0.161,0.802 -0.973,0.224 0,0.995 2.053,0 C 141.725,77.97 141.69,77.37 141.69,76.828 l 0.798,0 0.106,1.795 2.558,0 0,0.828 -2.426,0 c 0.073,0.469 0.216,0.971 0.429,1.514 l 0.932,-1.178 0.626,0.491 c -0.339,0.468 -0.737,0.955 -1.2,1.46 0.152,0.28 0.293,0.491 0.428,0.63 0.177,0.197 0.307,0.294 0.387,0.294 0.079,-0.009 0.132,-0.102 0.159,-0.28 l 0.067,-1.108 0.773,0.238 c -0.142,1.206 -0.32,1.927 -0.533,2.16 -0.072,0.075 -0.165,0.117 -0.28,0.127 -0.444,-0.01 -0.974,-0.519 -1.587,-1.53 -0.497,0.413 -1.185,0.829 -2.065,1.249 l -0.414,-0.715 c 0.65,-0.271 1.306,-0.658 1.974,-1.164 l 0.133,-0.097 c -0.31,-0.636 -0.519,-1.334 -0.625,-2.091 z m -1.16,-4.825 -3.198,0 0,-0.828 3.198,0 0,-0.911 -3.358,0 0,-0.827 1.746,0 c -0.196,-0.421 -0.379,-0.762 -0.547,-1.024 l 0.693,-0.407 c 0.249,0.383 0.492,0.861 0.732,1.431 l 2.146,0 c 0.265,-0.579 0.456,-1.056 0.572,-1.431 l 0.734,0.309 -0.413,1.122 1.971,0 0,0.827 -3.491,0 0,0.911 3.224,0 0,0.828 -3.224,0 0,0.856 3.545,0 0,0.827 -7.848,0 0,-0.827 3.518,0 0,-0.856 z m 3.065,1.698 c 0.318,0.289 0.656,0.677 1.011,1.162 l -0.613,0.548 c -0.372,-0.505 -0.698,-0.884 -0.972,-1.136 l 0.574,-0.574 z"
       inkscape:connector-curvature="0"
       style="fill:#231f20" /><path
       id="path4213"
       d="m 150.977,73.07 4.931,0 0,0.827 -5.025,0 0,-0.786 c -0.957,0.384 -2.081,0.748 -3.37,1.094 l -0.304,-0.77 c 3.098,-0.712 5.154,-1.661 6.167,-2.848 l 0.547,0.422 -0.146,0.167 c 1.723,1.084 3.691,1.814 5.901,2.188 l -0.318,0.772 c -2.203,-0.515 -4.231,-1.335 -6.077,-2.455 -0.489,0.42 -1.257,0.884 -2.306,1.389 m 7.395,5.259 -10.045,0 c -0.072,0 -0.107,-0.043 -0.107,-0.127 l 0,-3.394 c 0.01,-0.076 0.045,-0.111 0.107,-0.111 l 10.045,0 c 0.083,0.008 0.121,0.045 0.121,0.111 l 0,3.394 c 0,0.084 -0.038,0.127 -0.121,0.127 z m -0.746,5.722 -8.606,0 c -0.072,0 -0.107,-0.042 -0.107,-0.128 l 0,-4.516 c 0.01,-0.074 0.043,-0.111 0.107,-0.111 l 8.606,0 c 0.08,0.009 0.121,0.047 0.121,0.111 l 0,4.516 c 0,0.086 -0.041,0.128 -0.121,0.128 z m -4.609,-8.527 -3.983,0 -0.027,0.028 0,1.908 0.027,0.042 3.983,0 0,-1.978 z m 3.943,5.791 0,-1.162 -0.039,-0.03 -7.196,0 -0.027,0.03 0,1.162 7.262,0 z m -7.262,0.83 0,1.036 0.027,0.043 7.196,0 0.039,-0.043 0,-1.036 -7.262,0 z m 1.185,-6.327 c 0.33,0.255 0.672,0.594 1.029,1.024 l -0.573,0.588 c -0.383,-0.448 -0.714,-0.785 -0.987,-1.009 l 0.531,-0.603 z m 4.72,1.684 2.064,0 0.039,-0.042 0,-1.908 -0.039,-0.028 -3.863,0 0,1.978 0.825,0 c 0.436,-0.674 0.761,-1.24 0.974,-1.698 l 0.678,0.421 c -0.178,0.392 -0.404,0.819 -0.678,1.277 z"
       inkscape:connector-curvature="0"
       style="fill:#231f20" /></g></svg>